<svg width="28" height="29" viewBox="0 0 28 29" fill="none" xmlns="http://www.w3.org/2000/svg">
<path d="M19.5883 26.825H8.41167C7.10368 26.8097 5.85447 26.2793 4.93499 25.3489C4.01552 24.4185 3.49991 23.1631 3.5 21.855V7.36502C3.49991 6.05694 4.01552 4.80156 4.93499 3.87116C5.85447 2.94077 7.10368 2.41037 8.41167 2.39502H19.5883C20.9065 2.39502 22.1706 2.91864 23.1027 3.8507C24.0347 4.78275 24.5583 6.04689 24.5583 7.36502V21.855C24.5583 23.1731 24.0347 24.4373 23.1027 25.3693C22.1706 26.3014 20.9065 26.825 19.5883 26.825ZM8.41167 4.72835C7.72254 4.7436 7.06678 5.02811 6.58486 5.52094C6.10293 6.01377 5.83316 6.67572 5.83333 7.36502V21.855C5.83333 22.5543 6.11112 23.225 6.6056 23.7194C7.10007 24.2139 7.77071 24.4917 8.47 24.4917H19.6467C19.9929 24.4917 20.3358 24.4235 20.6557 24.291C20.9756 24.1585 21.2662 23.9643 21.5111 23.7194C21.7559 23.4746 21.9501 23.1839 22.0826 22.864C22.2151 22.5441 22.2833 22.2013 22.2833 21.855V7.36502C22.2833 6.66573 22.0055 5.99509 21.5111 5.50061C21.0166 5.00614 20.346 4.72835 19.6467 4.72835H8.41167Z" fill="#F3F0EE"/>
<path d="M19.5184 14.6683H8.48173C8.17231 14.6683 7.87556 14.5453 7.65677 14.3265C7.43798 14.1078 7.31506 13.811 7.31506 13.5016V6.87492C7.31506 6.5655 7.43798 6.26875 7.65677 6.04996C7.87556 5.83117 8.17231 5.70825 8.48173 5.70825H19.5184C19.8278 5.70825 20.1246 5.83117 20.3434 6.04996C20.5621 6.26875 20.6851 6.5655 20.6851 6.87492V13.5016C20.6851 13.811 20.5621 14.1078 20.3434 14.3265C20.1246 14.5453 19.8278 14.6683 19.5184 14.6683ZM9.6484 12.3349H18.3517V8.04159H9.6484V12.3349Z" fill="#F3F0EE"/>
<path d="M18.5733 15.7183H17.15C16.628 15.7183 16.205 16.1414 16.205 16.6633V21.3999C16.205 21.9218 16.628 22.3449 17.15 22.3449H18.5733C19.0952 22.3449 19.5183 21.9218 19.5183 21.3999V16.6633C19.5183 16.1414 19.0952 15.7183 18.5733 15.7183Z" fill="#F3F0EE"/>
<path d="M11.3167 16.1149V18.1099C11.3167 18.3433 10.955 18.5183 10.5117 18.5183H9.33332C8.88999 18.5183 8.52832 18.3433 8.52832 18.1099V16.1149C8.52832 15.8933 8.88999 15.7183 9.33332 15.7183H10.5C10.955 15.7766 11.3167 15.8933 11.3167 16.1149Z" fill="#F3F0EE"/>
<path d="M11.3167 19.9066V21.9366C11.3167 22.1583 10.955 22.345 10.5117 22.345H9.33332C8.88999 22.345 8.52832 22.1583 8.52832 21.9366V19.9066C8.52832 19.685 8.88999 19.4983 9.33332 19.4983H10.5C10.955 19.4983 11.3167 19.685 11.3167 19.9066Z" fill="#F3F0EE"/>
<path d="M15.1667 19.9066V21.9366C15.1667 22.1583 14.805 22.345 14.35 22.345H13.1834C12.7284 22.345 12.3667 22.1583 12.3667 21.9366V19.9066C12.3667 19.685 12.7284 19.4983 13.1834 19.4983H14.35C14.7467 19.4983 15.1667 19.685 15.1667 19.9066Z" fill="#F3F0EE"/>
<path d="M15.1667 16.1149V18.1099C15.1667 18.3433 14.805 18.5183 14.35 18.5183H13.1834C12.7284 18.5183 12.3667 18.3433 12.3667 18.1099V16.1149C12.3667 15.8933 12.7284 15.7183 13.1834 15.7183H14.35C14.7467 15.7766 15.1667 15.8933 15.1667 16.1149Z" fill="#F3F0EE"/>
</svg>
