<svg width="28" height="29" viewBox="0 0 28 29" fill="none" xmlns="http://www.w3.org/2000/svg">
<path d="M24.5 15.6468H3.50004C3.19062 15.6468 2.89388 15.5239 2.67508 15.3051C2.45629 15.0863 2.33337 14.7896 2.33337 14.4801V3.98014C2.33337 3.67072 2.45629 3.37398 2.67508 3.15519C2.89388 2.93639 3.19062 2.81348 3.50004 2.81348H24.5C24.8095 2.81348 25.1062 2.93639 25.325 3.15519C25.5438 3.37398 25.6667 3.67072 25.6667 3.98014V14.4801C25.6667 14.7896 25.5438 15.0863 25.325 15.3051C25.1062 15.5239 24.8095 15.6468 24.5 15.6468ZM4.66671 13.3135H23.3334V5.14681H4.66671V13.3135Z" fill="#F3F0EE"/>
<path d="M24.5 26.1468H3.50004C3.19062 26.1468 2.89388 26.0239 2.67508 25.8051C2.45629 25.5863 2.33337 25.2896 2.33337 24.9801V14.4801C2.33337 14.1707 2.45629 13.874 2.67508 13.6552C2.89388 13.4364 3.19062 13.3135 3.50004 13.3135H24.5C24.8095 13.3135 25.1062 13.4364 25.325 13.6552C25.5438 13.874 25.6667 14.1707 25.6667 14.4801V24.9801C25.6667 25.2896 25.5438 25.5863 25.325 25.8051C25.1062 26.0239 24.8095 26.1468 24.5 26.1468ZM4.66671 23.8135H23.3334V15.6468H4.66671V23.8135Z" fill="#F3F0EE"/>
<path d="M19.25 9.09014H8.91337C8.60395 9.09014 8.30721 8.96723 8.08841 8.74843C7.86962 8.52964 7.7467 8.2329 7.7467 7.92348V3.98014C7.7467 3.67072 7.86962 3.37398 8.08841 3.15519C8.30721 2.93639 8.60395 2.81348 8.91337 2.81348C9.22279 2.81348 9.51954 2.93639 9.73833 3.15519C9.95712 3.37398 10.08 3.67072 10.08 3.98014V6.75681H18.0834V3.98014C18.0834 3.67072 18.2063 3.37398 18.4251 3.15519C18.6439 2.93639 18.9406 2.81348 19.25 2.81348C19.5595 2.81348 19.8562 2.93639 20.075 3.15519C20.2938 3.37398 20.4167 3.67072 20.4167 3.98014V7.92348C20.4167 8.2329 20.2938 8.52964 20.075 8.74843C19.8562 8.96723 19.5595 9.09014 19.25 9.09014Z" fill="#F3F0EE"/>
<path d="M19.25 19.5901H8.91337C8.60395 19.5901 8.30721 19.4672 8.08841 19.2484C7.86962 19.0296 7.7467 18.7329 7.7467 18.4235V14.4801C7.7467 14.1707 7.86962 13.874 8.08841 13.6552C8.30721 13.4364 8.60395 13.3135 8.91337 13.3135C9.22279 13.3135 9.51954 13.4364 9.73833 13.6552C9.95712 13.874 10.08 14.1707 10.08 14.4801V17.2568H18.0834V14.4801C18.0834 14.1707 18.2063 13.874 18.4251 13.6552C18.6439 13.4364 18.9406 13.3135 19.25 13.3135C19.5595 13.3135 19.8562 13.4364 20.075 13.6552C20.2938 13.874 20.4167 14.1707 20.4167 14.4801V18.4235C20.4167 18.7329 20.2938 19.0296 20.075 19.2484C19.8562 19.4672 19.5595 19.5901 19.25 19.5901Z" fill="#F3F0EE"/>
</svg>
