<svg width="28" height="28" viewBox="0 0 28 28" fill="none" xmlns="http://www.w3.org/2000/svg">
<path d="M12.705 14C12.5394 13.9998 12.3757 13.9643 12.2248 13.8959C12.0739 13.8275 11.9394 13.7278 11.83 13.6033C11.722 13.4798 11.6412 13.335 11.593 13.1782C11.5447 13.0214 11.5301 12.8561 11.55 12.6933C12.0284 8.87831 14.9684 1.67997 22.7034 1.67997C22.9882 1.67756 23.2641 1.77944 23.479 1.96641C23.6939 2.15339 23.833 2.41253 23.87 2.69497C24.1672 5.55789 23.3295 8.42316 21.5367 10.675C19.5417 12.8916 16.59 14 12.705 14ZM21.5717 4.07164C16.6017 4.66664 14.77 9.26331 14.1517 11.6666C16.2644 11.5965 18.2675 10.7099 19.74 9.19331C20.9154 7.74865 21.5617 5.94567 21.5717 4.08331V4.07164Z" fill="#F3F0EE"/>
<path d="M12.705 14H12.565C9.63667 13.6267 4.095 11.3633 4.095 5.38999C4.09293 5.10337 4.19645 4.82601 4.3858 4.61083C4.57516 4.39565 4.83711 4.25771 5.12167 4.22332C7.34136 4.00106 9.55913 4.66345 11.2933 6.06666C12.1919 6.93726 12.8886 7.99444 13.3341 9.16362C13.7796 10.3328 13.9631 11.5855 13.8717 12.8333C13.8717 13.1427 13.7488 13.4395 13.53 13.6583C13.3112 13.8771 13.0144 14 12.705 14ZM6.53333 6.54499C7.09333 9.54332 9.75333 10.8267 11.445 11.3517C11.3285 10.0197 10.7313 8.77568 9.765 7.85166C8.8538 7.08409 7.72195 6.62645 6.53333 6.54499Z" fill="#F3F0EE"/>
<path d="M12.705 18.8766C12.3956 18.8766 12.0988 18.7537 11.88 18.5349C11.6612 18.3161 11.5383 18.0194 11.5383 17.71V12.8333C11.5383 12.5239 11.6612 12.2271 11.88 12.0083C12.0988 11.7895 12.3956 11.6666 12.705 11.6666C13.0144 11.6666 13.3112 11.7895 13.53 12.0083C13.7487 12.2271 13.8717 12.5239 13.8717 12.8333V17.6983C13.8732 17.8525 13.8442 18.0054 13.7862 18.1483C13.7283 18.2912 13.6426 18.4212 13.5341 18.5308C13.4256 18.6404 13.2965 18.7274 13.1542 18.7867C13.0119 18.8461 12.8592 18.8766 12.705 18.8766Z" fill="#F3F0EE"/>
<path d="M15.8083 26.3083H10.0683C8.8306 26.3083 7.64362 25.8167 6.76845 24.9415C5.89328 24.0663 5.40161 22.8793 5.40161 21.6417V17.71C5.40161 17.4006 5.52453 17.1038 5.74332 16.885C5.96211 16.6663 6.25886 16.5433 6.56828 16.5433H19.3083C19.6177 16.5433 19.9144 16.6663 20.1332 16.885C20.352 17.1038 20.4749 17.4006 20.4749 17.71V21.6417C20.4749 22.8793 19.9833 24.0663 19.1081 24.9415C18.2329 25.8167 17.046 26.3083 15.8083 26.3083ZM7.73494 18.8767V21.6417C7.73494 22.2605 7.98078 22.854 8.41836 23.2916C8.85595 23.7292 9.44944 23.975 10.0683 23.975H15.8083C16.4271 23.975 17.0206 23.7292 17.4582 23.2916C17.8958 22.854 18.1416 22.2605 18.1416 21.6417V18.8767H7.73494Z" fill="#F3F0EE"/>
</svg>
