<svg width="28" height="28" viewBox="0 0 28 28" fill="none" xmlns="http://www.w3.org/2000/svg">
<path d="M14 16.3333C12.6155 16.3333 11.2622 15.9227 10.111 15.1535C8.95987 14.3844 8.06266 13.2911 7.53285 12.012C7.00303 10.733 6.86441 9.32549 7.13451 7.96762C7.4046 6.60976 8.07129 5.36248 9.05026 4.38351C10.0292 3.40454 11.2765 2.73785 12.6344 2.46776C13.9922 2.19766 15.3997 2.33628 16.6788 2.8661C17.9579 3.39591 19.0511 4.29312 19.8203 5.44426C20.5895 6.59541 21 7.94879 21 9.33326C21 11.1898 20.2625 12.9702 18.9498 14.283C17.637 15.5958 15.8565 16.3333 14 16.3333ZM14 4.66659C13.077 4.66659 12.1748 4.94028 11.4073 5.45306C10.6399 5.96584 10.0418 6.69468 9.68857 7.5474C9.33536 8.40012 9.24294 9.33843 9.423 10.2437C9.60307 11.1489 10.0475 11.9804 10.7002 12.6331C11.3528 13.2857 12.1843 13.7302 13.0896 13.9103C13.9948 14.0903 14.9331 13.9979 15.7859 13.6447C16.6386 13.2915 17.3674 12.6933 17.8802 11.9259C18.393 11.1585 18.6667 10.2562 18.6667 9.33326C18.6667 8.09558 18.175 6.90859 17.2998 6.03342C16.4247 5.15825 15.2377 4.66659 14 4.66659Z" fill="#F3F0EE"/>
<path d="M24.5 25.6667C24.1906 25.6667 23.8939 25.5438 23.6751 25.325C23.4563 25.1062 23.3334 24.8094 23.3334 24.5C23.3334 22.3341 22.473 20.2568 20.9414 18.7253C19.4099 17.1937 17.3326 16.3333 15.1667 16.3333H12.8334C10.6674 16.3333 8.59022 17.1937 7.05867 18.7253C5.52712 20.2568 4.66671 22.3341 4.66671 24.5C4.66671 24.8094 4.54379 25.1062 4.325 25.325C4.10621 25.5438 3.80946 25.6667 3.50004 25.6667C3.19062 25.6667 2.89388 25.5438 2.67508 25.325C2.45629 25.1062 2.33337 24.8094 2.33337 24.5C2.33337 21.7152 3.43962 19.0445 5.40875 17.0754C7.37788 15.1062 10.0486 14 12.8334 14H15.1667C17.9515 14 20.6222 15.1062 22.5913 17.0754C24.5605 19.0445 25.6667 21.7152 25.6667 24.5C25.6667 24.8094 25.5438 25.1062 25.325 25.325C25.1062 25.5438 24.8095 25.6667 24.5 25.6667Z" fill="#F3F0EE"/>
<path d="M14 25.6667C13.8465 25.6676 13.6943 25.6381 13.5522 25.5801C13.41 25.522 13.2807 25.4365 13.1717 25.3283L12.005 24.1617C11.8773 24.0331 11.7813 23.8765 11.7246 23.7044C11.6679 23.5323 11.6521 23.3493 11.6784 23.17L12.845 15.0033C12.845 14.6939 12.968 14.3972 13.1868 14.1784C13.4055 13.9596 13.7023 13.8367 14.0117 13.8367C14.3211 13.8367 14.6179 13.9596 14.8367 14.1784C15.0555 14.3972 15.1784 14.6939 15.1784 15.0033L16.345 23.17C16.3714 23.3493 16.3555 23.5323 16.2988 23.7044C16.2421 23.8765 16.1461 24.0331 16.0184 24.1617L14.8517 25.3283C14.7399 25.4393 14.6069 25.5265 14.4605 25.5846C14.3141 25.6428 14.1575 25.6707 14 25.6667Z" fill="#F3F0EE"/>
</svg>
